<svg width="46" height="46" viewBox="0 0 46 46" fill="none" xmlns="http://www.w3.org/2000/svg">
<g filter="url(#filter0_d_2775_1848)">
<mask id="mask0_2775_1848" style="mask-type:luminance" maskUnits="userSpaceOnUse" x="6" y="3" width="34" height="33">
<path d="M39.1305 19.5654C39.1305 10.6008 31.8633 3.3335 22.8986 3.3335C13.934 3.3335 6.66675 10.6008 6.66675 19.5654C6.66675 28.53 13.934 35.7973 22.8986 35.7973C31.8633 35.7973 39.1305 28.53 39.1305 19.5654Z" fill="white"/>
</mask>
<g mask="url(#mask0_2775_1848)">
<path d="M39.1305 19.5654C39.1305 10.6008 31.8633 3.3335 22.8986 3.3335C13.934 3.3335 6.66675 10.6008 6.66675 19.5654C6.66675 28.53 13.934 35.7973 22.8986 35.7973C31.8633 35.7973 39.1305 28.53 39.1305 19.5654Z" fill="#F7F7F7"/>
<path d="M22.8987 23.1724C31.3653 23.1724 38.2288 29.834 38.2288 38.0516C38.2288 46.2691 31.3653 52.9308 22.8987 52.9308C14.4321 52.9308 7.5686 46.2691 7.5686 38.0516C7.5686 29.834 14.4321 23.1724 22.8987 23.1724ZM22.8987 35.8197C16.0435 35.8197 10.4368 31.35 10.4368 38.0036C10.4368 44.6572 15.9941 50.051 22.8493 50.051C29.7045 50.051 35.2617 44.6572 35.2617 38.0036C35.2617 31.35 29.7539 35.8197 22.8987 35.8197Z" fill="#DDDEDF"/>
</g>
<path d="M22.8988 7.39111C26.634 7.39111 29.6621 10.4191 29.6621 14.1544C29.6621 17.8896 26.634 20.9177 22.8988 20.9177C19.1636 20.9177 16.1355 17.8896 16.1355 14.1544C16.1355 10.4191 19.1636 7.39111 22.8988 7.39111ZM23.3159 10.1866C21.1494 10.1866 18.9761 11.9879 18.9761 14.1544C18.9761 16.3208 17.0309 12.8525 19.1973 12.8525C21.3637 12.8525 17.9839 14.5342 17.9839 12.3678C17.9839 10.2013 20.1653 8.2478 23.3159 10.1866Z" fill="#DDDEDF"/>
</g>
<defs>
<filter id="filter0_d_2775_1848" x="-3.33317" y="-3.33333" width="53.3333" height="53.3333" filterUnits="userSpaceOnUse" color-interpolation-filters="sRGB">
<feFlood flood-opacity="0" result="BackgroundImageFix"/>
<feColorMatrix in="SourceAlpha" type="matrix" values="0 0 0 0 0 0 0 0 0 0 0 0 0 0 0 0 0 0 127 0" result="hardAlpha"/>
<feOffset dy="3.33333"/>
<feGaussianBlur stdDeviation="3.33333"/>
<feComposite in2="hardAlpha" operator="out"/>
<feColorMatrix type="matrix" values="0 0 0 0 0 0 0 0 0 0 0 0 0 0 0 0 0 0 0.05 0"/>
<feBlend mode="normal" in2="BackgroundImageFix" result="effect1_dropShadow_2775_1848"/>
<feBlend mode="normal" in="SourceGraphic" in2="effect1_dropShadow_2775_1848" result="shape"/>
</filter>
</defs>
</svg>
